<svg width="393" height="78" viewBox="0 0 393 78" fill="none" xmlns="http://www.w3.org/2000/svg">
<path d="M145.527 73V61.022H152.799V62.3667H147.021V66.4839H152.326V67.812H147.021V73H145.527ZM158.35 73.1577C157.504 73.1577 156.771 72.9723 156.151 72.6016C155.537 72.2253 155.061 71.6912 154.723 70.9995C154.391 70.3078 154.225 69.486 154.225 68.5342V68.5176C154.225 67.5602 154.391 66.7357 154.723 66.0439C155.061 65.3522 155.537 64.821 156.151 64.4502C156.771 64.0794 157.504 63.894 158.35 63.894C159.203 63.894 159.936 64.0794 160.55 64.4502C161.164 64.821 161.638 65.3522 161.97 66.0439C162.307 66.7357 162.476 67.5602 162.476 68.5176V68.5342C162.476 69.486 162.307 70.3078 161.97 70.9995C161.638 71.6912 161.164 72.2253 160.55 72.6016C159.936 72.9723 159.203 73.1577 158.35 73.1577ZM158.35 71.8794C158.915 71.8794 159.394 71.7466 159.787 71.481C160.179 71.2153 160.478 70.8335 160.683 70.3354C160.893 69.8374 160.998 69.237 160.998 68.5342V68.5176C160.998 67.8092 160.893 67.2061 160.683 66.708C160.478 66.21 160.179 65.8309 159.787 65.5708C159.394 65.3052 158.915 65.1724 158.35 65.1724C157.786 65.1724 157.307 65.3052 156.914 65.5708C156.522 65.8309 156.22 66.21 156.01 66.708C155.805 67.2061 155.703 67.8092 155.703 68.5176V68.5342C155.703 69.237 155.805 69.8374 156.01 70.3354C156.22 70.8335 156.522 71.2153 156.914 71.481C157.307 71.7466 157.786 71.8794 158.35 71.8794ZM167.994 73.1577C167.148 73.1577 166.415 72.9723 165.795 72.6016C165.18 72.2253 164.705 71.6912 164.367 70.9995C164.035 70.3078 163.869 69.486 163.869 68.5342V68.5176C163.869 67.5602 164.035 66.7357 164.367 66.0439C164.705 65.3522 165.18 64.821 165.795 64.4502C166.415 64.0794 167.148 63.894 167.994 63.894C168.847 63.894 169.58 64.0794 170.194 64.4502C170.808 64.821 171.282 65.3522 171.614 66.0439C171.951 66.7357 172.12 67.5602 172.12 68.5176V68.5342C172.12 69.486 171.951 70.3078 171.614 70.9995C171.282 71.6912 170.808 72.2253 170.194 72.6016C169.58 72.9723 168.847 73.1577 167.994 73.1577ZM167.994 71.8794C168.559 71.8794 169.038 71.7466 169.43 71.481C169.823 71.2153 170.122 70.8335 170.327 70.3354C170.537 69.8374 170.642 69.237 170.642 68.5342V68.5176C170.642 67.8092 170.537 67.2061 170.327 66.708C170.122 66.21 169.823 65.8309 169.43 65.5708C169.038 65.3052 168.559 65.1724 167.994 65.1724C167.43 65.1724 166.951 65.3052 166.558 65.5708C166.165 65.8309 165.864 66.21 165.654 66.708C165.449 67.2061 165.346 67.8092 165.346 68.5176V68.5342C165.346 69.237 165.449 69.8374 165.654 70.3354C165.864 70.8335 166.165 71.2153 166.558 71.481C166.951 71.7466 167.43 71.8794 167.994 71.8794ZM177.265 73.1577C176.512 73.1577 175.854 72.9668 175.289 72.585C174.725 72.2031 174.288 71.6663 173.978 70.9746C173.668 70.2773 173.513 69.4639 173.513 68.5342V68.5176C173.513 67.5824 173.668 66.7689 173.978 66.0771C174.288 65.3854 174.722 64.8486 175.281 64.4668C175.845 64.085 176.507 63.894 177.265 63.894C177.674 63.894 178.059 63.9604 178.419 64.0933C178.784 64.2205 179.108 64.4004 179.39 64.6328C179.672 64.8652 179.893 65.1419 180.054 65.4629H180.187V60.499H181.631V73H180.187V71.5723H180.054C179.871 71.9043 179.642 72.1893 179.365 72.4272C179.088 72.6597 178.773 72.8395 178.419 72.9668C178.064 73.0941 177.68 73.1577 177.265 73.1577ZM177.597 71.8794C178.139 71.8794 178.607 71.7438 179 71.4727C179.393 71.2015 179.694 70.8169 179.904 70.3188C180.115 69.8153 180.22 69.2204 180.22 68.5342V68.5176C180.22 67.8258 180.115 67.231 179.904 66.7329C179.694 66.2349 179.393 65.8503 179 65.5791C178.607 65.3079 178.139 65.1724 177.597 65.1724C177.055 65.1724 176.587 65.3079 176.194 65.5791C175.807 65.8447 175.508 66.2266 175.298 66.7246C175.093 67.2227 174.99 67.8203 174.99 68.5176V68.5342C174.99 69.2259 175.093 69.8236 175.298 70.3271C175.508 70.8252 175.807 71.2098 176.194 71.481C176.587 71.7466 177.055 71.8794 177.597 71.8794ZM188.567 73V61.022H193.141C193.91 61.022 194.58 61.1714 195.15 61.4702C195.725 61.7635 196.171 62.1758 196.486 62.707C196.802 63.2383 196.959 63.8636 196.959 64.583V64.5996C196.959 65.4297 196.746 66.1491 196.32 66.7578C195.894 67.3665 195.305 67.7899 194.552 68.0278L197.325 73H195.573L193.008 68.2603C192.997 68.2603 192.983 68.2603 192.967 68.2603C192.95 68.2603 192.936 68.2603 192.925 68.2603H190.062V73H188.567ZM190.062 66.9321H193.008C193.778 66.9321 194.37 66.7357 194.785 66.3428C195.205 65.9443 195.416 65.3799 195.416 64.6494V64.6328C195.416 63.9189 195.197 63.36 194.76 62.9561C194.323 62.5521 193.717 62.3501 192.942 62.3501H190.062V66.9321ZM202.495 73.1577C201.642 73.1577 200.909 72.9696 200.295 72.5933C199.686 72.217 199.216 71.6857 198.884 70.9995C198.557 70.3078 198.394 69.4943 198.394 68.5591V68.5508C198.394 67.6266 198.557 66.8159 198.884 66.1187C199.216 65.4214 199.683 64.8763 200.287 64.4834C200.89 64.0905 201.595 63.894 202.403 63.894C203.217 63.894 203.914 64.0822 204.495 64.4585C205.082 64.8348 205.53 65.3605 205.84 66.0356C206.155 66.7052 206.313 67.4855 206.313 68.3765V68.9409H199.141V67.7871H205.574L204.86 68.8413V68.2686C204.86 67.5658 204.755 66.9875 204.545 66.5337C204.335 66.0799 204.044 65.7424 203.673 65.521C203.302 65.2941 202.876 65.1807 202.395 65.1807C201.913 65.1807 201.482 65.2996 201.1 65.5376C200.724 65.77 200.425 66.1159 200.204 66.5752C199.982 67.0345 199.871 67.599 199.871 68.2686V68.8413C199.871 69.4777 199.979 70.0228 200.195 70.4766C200.411 70.9248 200.718 71.2707 201.117 71.5142C201.515 71.7521 201.985 71.8711 202.528 71.8711C202.932 71.8711 203.283 71.8158 203.582 71.7051C203.881 71.5944 204.127 71.4533 204.321 71.2817C204.514 71.1102 204.65 70.9359 204.727 70.7588L204.761 70.6841H206.205L206.188 70.7505C206.111 71.0549 205.973 71.3509 205.773 71.6387C205.58 71.9209 205.328 72.1782 205.018 72.4106C204.708 72.6375 204.34 72.8201 203.914 72.9585C203.493 73.0913 203.02 73.1577 202.495 73.1577ZM210.52 73L207.208 64.0518H208.735L211.184 71.4229H211.317L213.765 64.0518H215.293L211.981 73H210.52ZM216.835 73V64.0518H218.279V73H216.835ZM217.566 62.3252C217.294 62.3252 217.059 62.2284 216.86 62.0347C216.666 61.8354 216.57 61.6003 216.57 61.3291C216.57 61.0524 216.666 60.8172 216.86 60.6235C217.059 60.4299 217.294 60.333 217.566 60.333C217.842 60.333 218.078 60.4299 218.271 60.6235C218.465 60.8172 218.562 61.0524 218.562 61.3291C218.562 61.6003 218.465 61.8354 218.271 62.0347C218.078 62.2284 217.842 62.3252 217.566 62.3252ZM224.254 73.1577C223.402 73.1577 222.669 72.9696 222.055 72.5933C221.446 72.217 220.976 71.6857 220.644 70.9995C220.317 70.3078 220.154 69.4943 220.154 68.5591V68.5508C220.154 67.6266 220.317 66.8159 220.644 66.1187C220.976 65.4214 221.443 64.8763 222.046 64.4834C222.65 64.0905 223.355 63.894 224.163 63.894C224.977 63.894 225.674 64.0822 226.255 64.4585C226.842 64.8348 227.29 65.3605 227.6 66.0356C227.915 66.7052 228.073 67.4855 228.073 68.3765V68.9409H220.901V67.7871H227.334L226.62 68.8413V68.2686C226.62 67.5658 226.515 66.9875 226.305 66.5337C226.095 66.0799 225.804 65.7424 225.433 65.521C225.062 65.2941 224.636 65.1807 224.155 65.1807C223.673 65.1807 223.242 65.2996 222.86 65.5376C222.484 65.77 222.185 66.1159 221.963 66.5752C221.742 67.0345 221.631 67.599 221.631 68.2686V68.8413C221.631 69.4777 221.739 70.0228 221.955 70.4766C222.171 70.9248 222.478 71.2707 222.877 71.5142C223.275 71.7521 223.745 71.8711 224.288 71.8711C224.692 71.8711 225.043 71.8158 225.342 71.7051C225.641 71.5944 225.887 71.4533 226.081 71.2817C226.274 71.1102 226.41 70.9359 226.487 70.7588L226.521 70.6841H227.965L227.948 70.7505C227.871 71.0549 227.733 71.3509 227.533 71.6387C227.34 71.9209 227.088 72.1782 226.778 72.4106C226.468 72.6375 226.1 72.8201 225.674 72.9585C225.253 73.0913 224.78 73.1577 224.254 73.1577ZM231.641 73L229.134 64.0518H230.578L232.338 71.207H232.471L234.471 64.0518H235.841L237.841 71.207H237.974L239.734 64.0518H241.17L238.663 73H237.21L235.21 66.0771H235.077L233.085 73H231.641Z" fill="black"/>
<path fill-rule="evenodd" clip-rule="evenodd" d="M127.854 33.4379C127.563 32.3615 127.417 31.2408 127.417 30.0757V29.8858C127.417 28.7334 127.563 27.619 127.854 26.5425C128.146 25.4535 128.589 24.4973 129.184 23.6742C129.779 22.8511 130.539 22.1926 131.463 21.6987C132.388 21.1921 133.49 20.9388 134.769 20.9388C135.579 20.9388 136.314 21.0465 136.972 21.2618C137.631 21.4644 138.213 21.7493 138.72 22.1166C139.239 22.4712 139.695 22.9017 140.087 23.4083C140.48 23.9022 140.822 24.4404 141.113 25.0229L145.938 22.3065C145.482 21.3568 144.887 20.4956 144.152 19.7231C143.418 18.938 142.57 18.2731 141.607 17.7286C140.657 17.1714 139.6 16.7472 138.435 16.4559C137.282 16.152 136.06 16 134.769 16C132.78 16 130.982 16.3672 129.374 17.1017C127.778 17.8236 126.411 18.8177 125.271 20.084C124.144 21.3378 123.27 22.8194 122.649 24.529C122.042 26.2259 121.738 28.0495 121.738 29.9997C121.738 31.9626 122.01 33.7925 122.555 35.4895C123.112 37.1864 123.916 38.668 124.967 39.9344C126.031 41.2008 127.335 42.1949 128.88 42.9167C130.425 43.6386 132.192 43.9995 134.18 43.9995C135.028 43.9995 135.826 43.9108 136.573 43.7335C137.333 43.5562 138.03 43.3156 138.663 43.0117C139.296 42.6951 139.866 42.3215 140.372 41.891C140.879 41.4477 141.303 40.9602 141.645 40.4283V43.6196H146.47V28.689H134.142V32.8871H141.113V33.153C141.113 33.7355 141.012 34.3687 140.809 35.0526C140.619 35.7364 140.277 36.3759 139.783 36.9711C139.302 37.5536 138.65 38.0412 137.827 38.4338C137.016 38.8263 135.997 39.0226 134.769 39.0226C133.49 39.0226 132.388 38.7757 131.463 38.2818C130.539 37.7752 129.779 37.1104 129.184 36.2873C128.589 35.4641 128.146 34.5143 127.854 33.4379ZM162.559 16C164.585 16 166.402 16.3672 168.01 17.1017C169.619 17.8236 170.98 18.8177 172.094 20.084C173.222 21.3378 174.076 22.8194 174.659 24.529C175.254 26.2259 175.552 28.0495 175.552 29.9997C175.552 31.9626 175.254 33.7925 174.659 35.4895C174.076 37.1864 173.222 38.668 172.094 39.9344C170.98 41.2008 169.619 42.1949 168.01 42.9167C166.402 43.6386 164.585 43.9995 162.559 43.9995C160.52 43.9995 158.696 43.6386 157.088 42.9167C155.492 42.1949 154.131 41.2008 153.004 39.9344C151.89 38.668 151.035 37.1864 150.44 35.4895C149.857 33.7925 149.566 31.9626 149.566 29.9997C149.566 28.0495 149.857 26.2259 150.44 24.529C151.035 22.8194 151.89 21.3378 153.004 20.084C154.131 18.8177 155.492 17.8236 157.088 17.1017C158.696 16.3672 160.52 16 162.559 16ZM162.559 39.0226C163.749 39.0226 164.794 38.801 165.693 38.3578C166.605 37.9019 167.371 37.275 167.991 36.4772C168.612 35.6794 169.081 34.736 169.397 33.6469C169.714 32.5578 169.872 31.3674 169.872 30.0757V29.9237C169.872 28.6447 169.714 27.4607 169.397 26.3716C169.081 25.2698 168.612 24.3201 167.991 23.5222C167.371 22.7244 166.605 22.1039 165.693 21.6607C164.794 21.2048 163.749 20.9768 162.559 20.9768C161.368 20.9768 160.317 21.2048 159.405 21.6607C158.494 22.1039 157.727 22.7244 157.107 23.5222C156.499 24.3201 156.037 25.2698 155.72 26.3716C155.404 27.4607 155.245 28.6447 155.245 29.9237V30.0757C155.245 31.3674 155.404 32.5578 155.72 33.6469C156.037 34.736 156.499 35.6794 157.107 36.4772C157.727 37.275 158.494 37.9019 159.405 38.3578C160.317 38.801 161.368 39.0226 162.559 39.0226ZM233.476 39.0234C234.274 39.0234 235.015 38.9094 235.698 38.6815C236.395 38.4409 236.99 38.0863 237.484 37.6177C237.99 37.1365 238.389 36.535 238.681 35.8131C238.972 35.0787 239.118 34.2175 239.118 33.2298V16.3427H244.55V34.0466C244.55 35.5662 244.272 36.9402 243.714 38.1686C243.17 39.397 242.404 40.4417 241.416 41.3029C240.441 42.164 239.276 42.8288 237.921 43.2974C236.566 43.766 235.084 44.0002 233.476 44.0002C231.868 44.0002 230.386 43.766 229.031 43.2974C227.676 42.8288 226.504 42.164 225.517 41.3029C224.529 40.4417 223.756 39.397 223.199 38.1686C222.655 36.9402 222.382 35.5662 222.382 34.0466V16.3427H227.834V33.2298C227.834 34.2175 227.98 35.0787 228.271 35.8131C228.562 36.535 228.955 37.1365 229.449 37.6177C229.955 38.0863 230.551 38.4409 231.234 38.6815C231.931 38.9094 232.678 39.0234 233.476 39.0234ZM254.147 16.3809H248.639V43.6205H254.147V35.3385L257.661 31.4064L264.861 43.6205H271.262L261.195 27.2084L270.654 16.3809H263.873L254.147 28.1772V16.3809ZM204.836 28.6552C204.612 29.1656 204.5 29.7158 204.5 30.3058C204.5 30.9118 204.612 31.478 204.836 32.0043C205.076 32.5306 205.396 32.993 205.796 33.3917C206.196 33.7904 206.66 34.1014 207.188 34.3247C207.732 34.548 208.3 34.6596 208.892 34.6596C209.484 34.6596 210.044 34.548 210.572 34.3247C211.1 34.1014 211.564 33.7904 211.964 33.3917C212.364 32.993 212.676 32.5306 212.9 32.0043C213.14 31.478 213.26 30.9118 213.26 30.3058C213.26 29.7158 213.14 29.1656 212.9 28.6552C212.676 28.1289 212.364 27.6744 211.964 27.2917C211.564 26.893 211.1 26.582 210.572 26.3587C210.044 26.1195 209.484 25.9999 208.892 25.9999C208.3 25.9999 207.732 26.1195 207.188 26.3587C206.66 26.582 206.196 26.893 205.796 27.2917C205.396 27.6744 205.076 28.1289 204.836 28.6552ZM176.089 16.3809L183.783 43.6205H191.267L198.96 16.3809H192.862L187.715 36.8581H187.525L182.263 16.3809H176.089Z" fill="black"/>
<path d="M204.5 30.3059C204.5 29.7159 204.612 29.1657 204.836 28.6553C205.076 28.129 205.396 27.6745 205.796 27.2918C206.196 26.8931 206.66 26.5821 207.189 26.3588C207.733 26.1196 208.301 26 208.893 26C209.485 26 210.045 26.1196 210.573 26.3588C211.101 26.5821 211.565 26.8931 211.965 27.2918C212.365 27.6745 212.677 28.129 212.901 28.6553C213.141 29.1657 213.261 29.7159 213.261 30.3059C213.261 30.9119 213.141 31.4781 212.901 32.0044C212.677 32.5307 212.365 32.9931 211.965 33.3918C211.565 33.7905 211.101 34.1015 210.573 34.3248C210.045 34.5481 209.485 34.6597 208.893 34.6597C208.301 34.6597 207.733 34.5481 207.189 34.3248C206.66 34.1015 206.196 33.7905 205.796 33.3918C205.396 32.9931 205.076 32.5307 204.836 32.0044C204.612 31.4781 204.5 30.9119 204.5 30.3059Z" fill="#1D70B8"/>
</svg>
